PathFileType	4	(X/Y/Z)	Patient4_TMGait_0pt7_01_left_12.trc.trc
DataRate	CameraRate	NumFrames	NumMarkers	Units	OrigDataRate	OrigDataStartFrame	OrigNumFrames
88.050314465409	88.050314465409	4	33	mm	88.050314465409	36	       141
Frame#	Time	Sacral			L.Shoulder			Chest			R.Shoulder			Neck			R.ASIS			L.ASIS			R.Thigh.Superior			R.Thigh.Lateral			R.Thigh.Inferior			R.Patella			L.Thigh.Superior			L.Thigh.Lateral			L.Thigh.Inferior			L.Patella			L.Shank.Superior			L.Shank.Lateral			L.Shank.Inferior			R.Shank.Superior			R.Shank.Lateral			R.Shank.Inferior			R.Heel			R.Midfoot.Superior			R.Midfoot.Lateral			R.Toe			L.Heel			L.Midfoot.Lateral			L.Midfoot.Superior			L.Toe			L.Elbow			L.Wrist			R.Elbow			R.Wrist			
		X1	Y1	Z1	X2	Y2	Z2	X3	Y3	Z3	X4	Y4	Z4	X5	Y5	Z5	X6	Y6	Z6	X7	Y7	Z7	X8	Y8	Z8	X9	Y9	Z9	X10	Y10	Z10	X11	Y11	Z11	X12	Y12	Z12	X13	Y13	Z13	X14	Y14	Z14	X15	Y15	Z15	X16	Y16	Z16	X17	Y17	Z17	X18	Y18	Z18	X19	Y19	Z19	X20	Y20	Z20	X21	Y21	Z21	X22	Y22	Z22	X23	Y23	Z23	X24	Y24	Z24	X25	Y25	Z25	X26	Y26	Z26	X27	Y27	Z27	X28	Y28	Z28	X29	Y29	Z29	X30	Y30	Z30	X31	Y31	Z31	X32	Y32	Z32	X33	Y33	Z33	

36	14.187500000000	838.072044971822	1006.425471779890	457.239942394558	1010.410375980500	1428.614425274040	269.281910512481	1126.106723951812	1353.422241112220	419.260895035632	1063.532743019239	1433.911542319843	598.306857552385	1030.528128364172	1488.646575435931	424.634104839884	1062.447903241447	933.728379463128	565.267194441429	1045.023378425043	953.327596402319	290.788161328580	1075.479131915511	723.121790356298	549.160488926313	978.056045899027	624.964612038473	612.944513716329	1051.263535416736	557.184060953987	541.389874178043	1032.756328348048	454.083749536189	558.652826451016	1115.180519210854	766.473852437298	320.976541143304	1043.647725371065	639.676519618489	257.298031881788	1139.845911001721	572.835102046469	317.054089455560	1150.165888864442	503.393729789769	324.176519608897	1132.158771225169	429.456696865652	314.603390194850	1056.532998406430	305.948546743355	262.591093003413	1124.594531931653	200.359765459245	329.468193684552	961.159009613447	386.342163235399	564.751209151593	845.391612942188	334.488447913601	625.328761147838	841.946095947329	225.070979180090	573.314228992350	648.345918777512	125.803256411543	542.516129809500	823.910976352768	113.399555667948	589.671749210936	717.821460871709	87.862938161240	620.687942552974	911.909242360938	33.631139493254	623.751858667263	1013.800150414603	38.430611977240	370.173357492324	1088.157017813366	35.369178221935	289.615668518038	1169.482022659133	98.484351824074	315.803751466801	1298.820073827910	49.498866938148	289.486851505505	848.884166614351	1118.095471268738	176.845502901340	793.649673190578	863.073487167859	203.293758055603	1182.098399615147	1114.040021966402	708.155379645347	1358.354986400304	1247.848246128007	597.014970027070	
37	14.198857142857	837.422532551220	1008.033999999385	453.893025473923	1011.484126054087	1430.267096279677	267.007856581555	1126.043217285496	1355.029010929275	417.769620765084	1062.156787395830	1435.385952186776	596.452804449928	1030.340410613044	1490.180943073123	422.509663197909	1061.103116642139	935.357848688461	563.053039938049	1045.324116316783	954.855413850815	288.641587216446	1079.880392770221	726.036397334984	547.398897707574	985.590166451193	625.445333005664	610.911295962135	1061.348761289251	559.180045614205	539.704497289686	1044.342030033282	454.254333094582	557.889421469825	1113.540100871185	765.698347674455	318.215480340134	1039.702970238554	639.986421772987	255.732706131185	1134.761555603879	572.008307478895	315.883638375279	1144.109630054165	502.837379358531	323.447756975310	1125.892090160251	429.228986465425	313.766322341172	1049.797217600818	305.966438392843	261.975132725011	1117.171108881774	200.254766273167	329.262604713381	970.265638140637	387.592314170117	563.527664104189	852.244802270612	340.239550461144	623.664085632205	845.452013033848	230.691642450815	572.386114459036	648.770251573098	140.711374204925	540.790504626307	822.969158416991	117.919383152743	588.966683846269	715.401740212974	98.851442285327	619.383115976443	905.153541995289	32.789645873653	623.488418113723	1005.859100131423	38.344558823556	370.112406921315	1080.204562568179	35.346000572724	289.563187367014	1161.461090475793	98.524978325763	315.768419765959	1290.831984135353	49.680413910316	289.410652979069	855.207795885863	1116.630010819126	172.789901514757	807.470812623304	859.978609738155	196.877742504843	1168.703529243681	1110.101309472595	707.708040576252	1354.792981214778	1232.203280841236	598.599849904701	
38	14.210214285714	836.503042659969	1009.453313594924	450.595803572425	1012.666714027761	1431.701848973772	264.758114778072	1125.875687834444	1356.440103715641	416.462017338407	1060.450676267989	1436.709027816522	594.690030286657	1030.013226239475	1491.515938465304	420.400662892269	1059.568663222977	936.847612800466	561.151631847583	1045.521068792914	956.137126356989	286.807187383148	1084.470761973943	729.185412323158	545.756388411547	993.671462690254	626.085914905423	608.974266342776	1071.862291210092	561.554131588847	537.925716318093	1056.515748761558	454.914472461322	556.760769997640	1111.551679681067	764.675904701122	315.902482824020	1035.743489340041	640.222539314276	254.250070941160	1129.550614423979	571.146002906223	314.980723079257	1137.896750400949	502.204680253330	322.850870394145	1119.504665656065	428.943988409641	313.032716930897	1043.031575112385	305.899249861361	261.393887325483	1109.723846128026	200.099008012082	329.101533178396	980.177107706052	389.156331849478	562.050027842508	860.204757025290	346.201582244854	621.887869987517	849.974619201436	236.730817593503	571.237258877204	650.676978917033	156.285971117590	538.938172933615	822.993983528055	123.029157982625	587.973060336701	714.249412993453	110.579480918180	617.904538293098	899.140305482373	32.121661158779	622.989421278312	997.894792804704	38.267806360880	370.085275096504	1072.222883371664	35.297393014751	289.535733496179	1153.468268235068	98.472430303034	315.768228375577	1282.854943685089	49.648023849940	289.347424160569	861.762791223868	1115.087856750145	168.533125085953	822.387451251875	856.903824629363	190.317350699674	1154.580412717055	1106.523719512545	707.181753859068	1350.475250025063	1215.387318633853	600.480628368239	
39	14.221571428571	835.331205055527	1010.634455260679	447.376213996795	1013.929059325153	1432.872176018980	262.560964417129	1125.591553288750	1357.607364944441	415.359059158965	1058.432963591268	1437.845191207163	593.050982533867	1029.553142109722	1492.631076848778	418.326744170235	1057.876032250110	938.161799950246	559.542590135477	1045.584652946147	957.170366832206	285.258233639895	1089.125658391610	732.559431545386	544.152790093782	1002.169126064824	626.953476576789	607.130524153966	1082.596302800120	564.342857448559	536.034741370144	1069.108908220752	456.112976962193	555.292550813440	1109.296320867830	763.533401549340	314.044435285594	1031.913889880681	640.423760485345	252.819652657617	1124.373161484446	570.305515665985	314.280142824093	1131.706931591692	501.532329825159	322.339717596135	1113.158795894184	428.610527273304	312.384482906012	1036.367464861718	305.780633834938	260.806654926698	1102.324807191012	199.897094947339	328.970939779779	990.746187286842	391.064382545628	560.357737427365	869.139149272939	352.294240499755	620.035413334967	855.489811513552	243.084722529438	569.914771019193	654.083598664653	172.098272028952	537.076849209414	824.096873271192	128.615698796916	586.709284637235	714.509925069382	122.677583788759	616.299433322248	894.177013446074	31.780477806209	622.160369112283	989.914298823266	38.207043596078	370.070491085724	1064.224275634722	35.237027734250	289.517163802235	1145.511798864912	98.346620827724	315.794320065091	1274.899712410424	49.425270261176	289.297400781030	868.599241910080	1113.414561634609	164.075260873025	838.387085692798	853.875967551187	183.688914108045	1139.886241993653	1103.336348709079	706.566912757098	1345.238571347863	1197.510161570559	602.690596374699	
